<svg xmlns="http://www.w3.org/2000/svg" viewBox="0 0 33.53 33">
  <g>
    <path d="M21.55,20.9h-.34l0-.1-.86-2.91h2.09l-.86,3Zm-6.26-4.7,1.31-4.38h.34l0,.1,1.27,4.28Zm-2.88,4.7h-.32l0-.1-.83-2.91H13.3l-.89,3Zm21.12-2.4V15.57a22.67,22.67,0,0,1-2.61.64V4.13A12.88,12.88,0,0,1,31.48,0H28.23a10.73,10.73,0,0,1,.57,4.13V16.2H24.53l2.39-8H25.19l-2.3,8H19.81l-2.38-8H16.15l-2.37,8H10.72l-2.3-8H6.58L9,16.2H4.66V4.13A11.58,11.58,0,0,1,5.28,0H2a10.53,10.53,0,0,1,.65,4.13v12.1A21.81,21.81,0,0,1,0,15.58v2.93a25.29,25.29,0,0,1,2.61-.63V29.47A7.61,7.61,0,0,1,2,33H5.26c-.23-.81-.6-.65-.6-3.53V17.87H9.51l1.76,5.92h1.81l1.76-5.92h3.95l1.76,5.92h1.8l1.76-5.92H28.8v11.6A8.28,8.28,0,0,1,28.24,33h3.25a7,7,0,0,1-.57-3.53V17.88c.86.13,2.07.49,2.61.62Z" fill="#9a836f"/>
    <path d="M17.66,29a.86.86,0,1,1-.85-.86.86.86,0,0,1,.85.86Z" fill="#9a836f"/>
    <path d="M17.66,3.17a.86.86,0,1,1-.85-.86.86.86,0,0,1,.85.86Z" fill="#9a836f"/>
  </g>
</svg>
