<svg xmlns="http://www.w3.org/2000/svg" viewBox="0 0 19.43 89.41"><defs><style>.a{fill:#48453f;}</style></defs><path class="a" d="M255,208.55a1.82,1.82,0,1,1-1.82-1.82A1.83,1.83,0,0,1,255,208.55Z" transform="translate(-243.46 -157.87)"/><path class="a" d="M262.76,190c-1.92-.43-2.78-1.27-4.26-3.14l-6.14-7.29a36.76,36.76,0,0,1,2.61-2.7c2.24-1.92,3.11-3,5.34-3.29,0,0,.05-.47,0-.52a10.14,10.14,0,0,0-1.93,0c-.84.07-3.86,0-4,.06s0,.58,0,.58a6.16,6.16,0,0,1,.76.06.39.39,0,0,1,.37.44c0,.42-.55,1-1,1.43-.17.15-2.29,2.24-2.46,2.41l-1.61,1.59a2.17,2.17,0,0,1-1.49.35h-.18V165.81c0-2.46.19-6.13.36-7.89,0,0-.21,0-.45,0a1.06,1.06,0,0,0-.51.19,20.33,20.33,0,0,1-4.57,2.46c-.14,0-.18.75,0,.79,1.84.22,2.09.35,2.09,3.33V185.7c0,2.87-.59,3.77-1.86,4.31-.12.05-.12.48,0,.48.85,0,1.53-.1,2.5-.1s3.09.1,4.05.1c.08,0,.09-.45,0-.49-1.4-.45-1.58-1.62-1.58-4.4v-4.37l.13,0c.6,0,.91-.1,1.27.27,0,0,1.93,2.26,2.81,3.26,1.13,1.28,3.31,3.72,3.4,4.42.07.55-.18.67-.8.85a1,1,0,0,0,0,.51c.92,0,2.93-.11,4-.11s2.33.11,3.24.11C262.89,190.51,263,190,262.76,190Z" transform="translate(-243.46 -157.87)"/><path class="a" d="M255.82,235.84c-2-.57-3.23-.94-5-1.62s-2.41-1.71-2.41-3,1-3.27,4.55-3.27a6,6,0,0,1,5.66,3.52c.09,0,.3.06.36,0,0-.65-.07-2.53-.1-2.62a9.53,9.53,0,0,0-5.85-2.27c-4.33,0-7.13,2.69-7.13,5.45a5.2,5.2,0,0,0,3.52,5c1,.4,4.94,1.47,6.12,1.93a3.1,3.1,0,0,1,2.31,3.17c0,2-1.42,3.83-4.5,3.83s-6.46-2.74-7.06-4.83c0-.09-.31-.1-.39-.05s.07,3.24.14,3.38a11.4,11.4,0,0,0,7.14,2.76c3.46,0,7.29-1.65,7.29-5.77C260.46,238.25,258.34,236.57,255.82,235.84Z" transform="translate(-243.46 -157.87)"/></svg>