<svg xmlns="http://www.w3.org/2000/svg" viewBox="0 0 256.65 53.1"><defs><style>.a{fill:#48453f;}</style></defs><path class="a" d="M381.42,225.89c-2.09-.36-3.66-1.54-3.66-5.28V188.75c0-3.48.31-8.95.58-12.59,0,0-.27-.14-.74-.14a1.6,1.6,0,0,0-.75.31,31.33,31.33,0,0,1-7.85,4c-.13.05-.06,1.08.08,1.11,2.78.43,3.81,1.18,3.81,5.24l-.05,13.83-.46-.33a13.7,13.7,0,0,0-8-2.45c-8.07,0-16.26,5.76-16.26,15.68,0,8.84,5.9,15.54,14.74,15.54a12.85,12.85,0,0,0,9.56-4.16l.57-.61-.15,4.53c0,.24.14.43.29.43a3.86,3.86,0,0,0,1.2-.28,51.68,51.68,0,0,1,7.15-2.26C381.59,226.55,381.49,225.89,381.42,225.89Zm-8.54-4-.06.08c-2.37,2.88-5.34,4.85-9.08,4.85-6.09,0-10.26-5.41-10.26-13s4.57-14.4,11.66-14.4c3.58,0,7.7,2.68,7.7,5.4Z" transform="translate(-124.87 -176.02)"/><path class="a" d="M314.83,210.82l21.59,0c1,0,1,0,1-.73,0-7.4-6.79-12.35-12.85-12.35-9.81,0-15.1,7.16-15.1,15.22,0,9.07,6.5,15.24,15,15.24a15.92,15.92,0,0,0,12.75-6.57.47.47,0,0,0,.1-.41,1.21,1.21,0,0,0-.6-.82c-1.86,2.46-5.79,5.31-9.81,5.31-6.94,0-11.31-4.74-11.94-11.21a21,21,0,0,1-.13-3.53A.87.87,0,0,0,314.83,210.82ZM315,209c.77-5.4,4.62-9.56,9.57-9.56,4.4,0,8.28,3.22,8.28,7.09,0,2.11-.65,2.63-3.42,2.63H315Z" transform="translate(-124.87 -176.02)"/><path class="a" d="M155.66,227.31c-3.06-.69-4.44-2-6.8-5l-9.8-11.63s2.65-3,4.16-4.31c3.58-3.06,5-4.79,8.52-5.25,0,0,.09-.75-.06-.83a16.3,16.3,0,0,0-3.07,0c-1.34.11-6.16,0-6.32.09s-.07.93,0,.93a11.58,11.58,0,0,1,1.22.1c.45.09.57.28.59.7,0,.67-.89,1.62-1.61,2.27-.27.25-3.65,3.59-3.92,3.86L136,210.77a3.33,3.33,0,0,1-2.37.58h-.29l0-22.6c0-3.92.3-9.79.58-12.6a1.81,1.81,0,0,0-.72-.07,1.63,1.63,0,0,0-.82.31,32.45,32.45,0,0,1-7.28,3.92c-.22,0-.29,1.19,0,1.26,2.93.35,3.33.57,3.33,5.31v33.6c0,4.58-.94,6-3,6.87-.19.08-.2.78,0,.78,1.37,0,2.44-.17,4-.17,1.39,0,4.91.17,6.45.17.14,0,.14-.72-.05-.78-2.23-.72-2.52-2.59-2.52-7l0-7,.21,0c1,0,1.46-.15,2,.43,0,0,3.08,3.61,4.47,5.2,1.81,2,5.28,5.95,5.42,7,.12.89-.27,1.08-1.27,1.37a1.58,1.58,0,0,0,0,.81c1.46,0,4.67-.18,6.43-.18s3.71.18,5.17.18C155.86,228.16,156,227.37,155.66,227.31Z" transform="translate(-124.87 -176.02)"/><path class="a" d="M178.32,227.32c-2-.78-3.11-2.17-3.11-7l-.05-9.32c0-4.2.45-10.7.58-12.6,0-.05-.25-.12-.4-.11s-.66.38-.8.45a25.57,25.57,0,0,1-7,3.59c-.27,0-.12,1,0,1,2.4.34,2.68,1.65,2.68,5.66l0,11.35c0,4.83-1.09,6.15-3.38,7-.27.1-.15.83,0,.83,1.45,0,4.15-.12,6-.12s4,.12,5.45.12C178.42,228.13,178.46,227.38,178.32,227.32Z" transform="translate(-124.87 -176.02)"/><path class="a" d="M172.4,189.66a3.18,3.18,0,0,0,0-6.35,3.18,3.18,0,1,0,0,6.35Z" transform="translate(-124.87 -176.02)"/><path class="a" d="M224,227.34c-2.85-.45-2.88-2.2-2.88-7l.07-12.22c0-6.33-4.85-10.1-9.13-10.1-2.93,0-6,1.55-9.48,4.76l-.53.49s.21-4,.31-5.39c0,0-.18-.15-.49-.15a4.26,4.26,0,0,0-1.09.54,21.62,21.62,0,0,1-6.87,3.63c-.16.06-.09,1,0,1,2.49.5,3.28,1.48,3.28,5.49l-.07,11.79c0,4.77-.12,6.37-3,7.12-.11,0-.14.84-.07.84,1.46,0,2.84-.15,4.6-.15s4.52.15,6,.15c.07,0,0-.77-.12-.8-2.78-.55-2.5-2.46-2.5-7l.06-14.79.08-.08c2.07-2.29,4-3.7,7.36-3.7,6.09,0,6.79,4.61,6.79,8.09l-.07,10.48c0,4.58.24,6.48-2.47,7-.11,0-.12.87-.05.87,1.45,0,4.17-.15,6-.15s2.9.15,4.35.15C224.21,228.16,224.33,227.39,224,227.34Z" transform="translate(-124.87 -176.02)"/><path class="a" d="M267.88,225.89c-2.09-.36-3.66-1.54-3.66-5.28V188.75c0-3.48.31-8.95.58-12.59,0,0-.27-.14-.74-.14a1.6,1.6,0,0,0-.75.31,31.33,31.33,0,0,1-7.85,4c-.13.05-.07,1.08.08,1.11,2.78.43,3.81,1.18,3.81,5.24l-.05,13.83-.46-.33a13.7,13.7,0,0,0-8-2.45c-8.07,0-16.26,5.76-16.26,15.68,0,8.84,5.9,15.54,14.74,15.54a12.85,12.85,0,0,0,9.56-4.16l.56-.61-.14,4.53c0,.24.14.43.29.43a3.93,3.93,0,0,0,1.2-.28,52,52,0,0,1,7.14-2.26C268.05,226.55,268,225.89,267.88,225.89Zm-8.54-4-.06.08c-2.37,2.88-5.34,4.85-9.08,4.85-6.09,0-10.26-5.41-10.26-13s4.57-14.4,11.66-14.4c3.58,0,7.7,2.68,7.7,5.4Z" transform="translate(-124.87 -176.02)"/><path class="a" d="M297.19,198c-3.15,0-5.74,1.83-8.91,4.77l-.52.49.33-5.41c0-.06-.21-.13-.6-.13s-.89.47-1,.53a26.91,26.91,0,0,1-6.37,3.57c-.17,0,0,1,.09,1,3.07.75,2.72,1.74,2.72,5.75v11.81c0,4.83-.22,6.29-2.85,6.87-.1,0,0,.93,0,.93,1.46,0,2.9-.13,4.7-.13s4.16.13,5.62.13c.14,0,.23-.87-.09-.93-2.41-.44-2.57-2-2.57-6.87V205.53l.08-.08c1.36-1.5,3.22-3.37,5.5-3.37a4.23,4.23,0,0,1,2.42.72c.74.5,1.31,1.33,2.8,1.33A2.34,2.34,0,0,0,301,201.8,4,4,0,0,0,297.19,198Z" transform="translate(-124.87 -176.02)"/></svg>